HIERARCHY
ROOT Hips
{
  OFFSET 0 0 0
  CHANNELS 6 Xposition Yposition Zposition Zrotation Xrotation Yrotation
  JOINT Spine
  {
    OFFSET 0 10.1816 0.131521
    CHANNELS 3 Zrotation Xrotation Yrotation
    JOINT Spine1
    {
      OFFSET 0 10.0835 -1.0008
      CHANNELS 3 Zrotation Xrotation Yrotation
      JOINT Spine2
      {
        OFFSET 0 9.10001 -1.37342
        CHANNELS 3 Zrotation Xrotation Yrotation
        JOINT Neck
        {
          OFFSET 0 16.6717 -2.51617
          CHANNELS 3 Zrotation Xrotation Yrotation
          JOINT Head
          {
            OFFSET 0 9.61788 1.68501
            CHANNELS 3 Zrotation Xrotation Yrotation
            End Site
            {
              OFFSET 0 17.8152 2.58499
            }
          }
        }
        JOINT LeftShoulder
        {
          OFFSET 4.57045 10.946 -2.62799
          CHANNELS 3 Zrotation Xrotation Yrotation
          JOINT LeftArm
          {
            OFFSET 10.5924 -0.524583 -2.23212
            CHANNELS 3 Zrotation Xrotation Yrotation
            JOINT LeftForeArm
            {
              OFFSET 27.8415 -8.94286e-05 3.74589e-05
              CHANNELS 3 Zrotation Xrotation Yrotation
              JOINT LeftHand
              {
                OFFSET 28.3288 -1.74407e-05 3.78045e-05
                CHANNELS 3 Zrotation Xrotation Yrotation
                End Site
                {
                  OFFSET 9.5334 -3.3924e-05 1.3937e-05
                }
              }
            }
          }
        }
        JOINT RightShoulder
        {
          OFFSET -4.56997 10.9462 -2.62802
          CHANNELS 3 Zrotation Xrotation Yrotation
          JOINT RightArm
          {
            OFFSET -10.5928 -0.524798 -2.2321
            CHANNELS 3 Zrotation Xrotation Yrotation
            JOINT RightForeArm
            {
              OFFSET -27.8415 -3.30792e-05 1.16763e-05
              CHANNELS 3 Zrotation Xrotation Yrotation
              JOINT RightHand
              {
                OFFSET -28.3288 0 5.5816e-05
                CHANNELS 3 Zrotation Xrotation Yrotation
                End Site
                {
                  OFFSET -9.5325 -1.63123e-05 1.67918e-05
                }
              }
            }
          }
        }
      }
    }
  }
  JOINT LeftUpLeg
  {
    OFFSET 8.20778 -6.75171 -1.59956
    CHANNELS 3 Zrotation Xrotation Yrotation
    JOINT LeftLeg
    {
      OFFSET 0 -44.3705 0.284643
      CHANNELS 3 Zrotation Xrotation Yrotation
      JOINT LeftFoot
      {
        OFFSET 0 -44.4279 -2.98219
        CHANNELS 3 Zrotation Xrotation Yrotation
        JOINT LeftToeBase
        {
          OFFSET 0 -8.72867 10.7106
          CHANNELS 3 Zrotation Xrotation Yrotation
          End Site
          {
            OFFSET 0 -0.000676683 9.27814
          }
        }
      }
    }
  }
  JOINT RightUpLeg
  {
    OFFSET -8.2078 -6.75166 -1.59956
    CHANNELS 3 Zrotation Xrotation Yrotation
    JOINT RightLeg
    {
      OFFSET 0 -44.3705 0.286156
      CHANNELS 3 Zrotation Xrotation Yrotation
      JOINT RightFoot
      {
        OFFSET 0 -44.4277 -2.98379
        CHANNELS 3 Zrotation Xrotation Yrotation
        JOINT RightToeBase
        {
          OFFSET 0 -8.72867 10.7106
          CHANNELS 3 Zrotation Xrotation Yrotation
          End Site
          {
            OFFSET 0 -0.000676369 9.27812
          }
        }
      }
    }
  }
}
MOTION
Frames:	16
Frame Time:	0.0333333
-35.2124 92.1955 183.183 113.568 -35.0516 -12.6071 7.80329 3.31466 -8.04353 8.4046 7.2456 -10.4961 8.46498 7.25963 -10.4384 -24.1919 -40.3624 -17.3119 5.57909 -7.14616 7.81946 -7.08016 0.701629 -25.7154 18.7629 -21.8317 44.2152 -0.000212916 1.88707e-06 -1.08193 22.9127 20.1742 26.2226 -6.40789 33.092 -4.67554 64.8928 -28.6525 69.1418 3.07874e-07 -6.89164e-06 10.4081 -33.2181 -25.3966 11.678 20.3543 -32.9074 13.939 -7.82854 42.0063 12.7756 -9.13949 5.94743 -27.333 9.4305e-06 -15.8541 -1.48834e-05 -115.848 -58.9067 -125.706 -6.13018 0.805219 3.50674 -22.8772 4.9214 18.3627 -1.60845 -10.7119 -0.273466 
-36.3694 86.2075 190.753 118.935 -39.8487 -20.1662 7.13819 3.45786 -5.56676 7.6362 6.95135 -8.93037 7.6446 6.97092 -8.90984 -24.4054 -41.5924 -17.9972 4.1698 -5.65143 11.8517 0.115432 1.59868 -21.9269 18.0164 -22.2896 35.8572 -0.000209566 -1.66817e-05 -0.583391 20.9269 23.7221 22.5096 -5.71107 34.0116 -0.672464 66.3387 -27.3814 70.0339 1.06046e-05 -6.12279e-06 13.7264 -38.3241 -26.4343 9.436 21.2754 -36.3212 16.8673 -13.0268 46.8081 17.3904 -11.6918 0.78348 -26.1046 -8.12233e-06 -15.1583 7.36921e-06 -141.118 -54.9953 -133.502 5.05479 27.8376 -9.96023 -27.3642 -24.8624 6.57951 -3.21663e-06 -1.22315 -9.71013e-06 
-37.2117 81.976 197.26 123.21 -43.8215 -27.077 6.10009 3.94746 -2.67641 6.4907 7.37348 -6.37639 6.46133 7.39168 -6.38594 -22.3513 -41.92 -18.2505 2.98406 -4.44308 15.5572 8.24863 4.76623 -17.8477 14.8906 -25.4992 23.3934 -0.00020637 4.71894e-06 -2.36329 22.7279 22.9336 19.5137 -5.28101 34.6359 2.65537 69.4671 -26.1555 70.034 3.17309e-06 4.62757e-06 17.6355 -41.101 -23.0376 10.2047 23.6853 -42.8617 18.0299 -14.3461 49.9276 18.1377 -7.48042 -1.2809 -22.3341 -5.65816e-06 -13.3279 -5.0292e-06 -167.542 -51.1118 -150.45 7.90238 46.8961 -14.8205 -26.3951 -29.439 0.33908 3.05461e-06 -2.3592 9.59551e-06 
-37.8304 78.7573 203.729 122.47 -50.7063 -32.3362 5.52204 5.14092 -0.366305 5.93919 9.39354 -4.61631 5.90372 9.41019 -4.62247 -19.0888 -41.3097 -18.42 2.21758 -4.80838 17.7329 13.0789 8.51655 -21.0162 16.1156 -28.8337 16.608 -0.00020572 -3.26749e-07 -5.52735 26.7354 19.2716 17.1624 -8.8637 34.5975 4.1031 76.5068 -25.4114 71.4564 9.34274e-06 1.39641e-06 19.5827 -38.4013 -19.0271 17.1119 21.8367 -49.3177 10.7972 -6.88517 51.2274 13.7923 -2.78017 -1.82277 -12.777 -9.90541e-06 -11.2615 -7.25466e-07 -179.578 -47.858 -156.624 11.6894 60.5675 -19.8432 -23.6173 -32.5715 -3.36286 2.2643e-06 -2.50202 1.4524e-05 
-38.3988 77.6828 210.11 116.198 -58.6283 -39.8744 5.90311 6.13434 1.24895 6.47878 11.2915 -4.01465 6.4497 11.3142 -3.98542 -17.046 -42.0694 -19.4906 0.944424 -5.38942 18.9548 18.5329 11.1812 -26.1179 16.2096 -33.45 11.0699 -0.000210275 -1.40382e-05 -9.40234 31.7648 14.1042 15.05 -13.3775 34.3126 4.50256 83.51 -23.8425 74.2117 5.84248e-06 -3.71318e-06 18.3738 -36.8083 -18.88 22.1959 28.2708 -53.6314 16.6346 -3.40313 51.8536 11.1231 4.00505 0.144775 -1.73794 -3.02405e-06 -9.857 5.80665e-06 174.82 -48.1047 -157.663 16.8588 68.3147 -25.0892 -19.9014 -32.3232 -6.71499 -4.48473e-06 -3.07573 -7.54463e-06 
-39.5824 77.543 215.841 109.103 -65.702 -50.1493 6.05168 6.12757 2.3022 6.61233 11.518 -3.53234 6.59319 11.5468 -3.45951 -16.5494 -43.7104 -20.9246 -0.485309 -5.71019 19.3774 23.6858 14.1469 -26.7549 12.707 -40.5029 -0.0806074 -0.000198413 -1.16966e-06 -13.9044 37.3518 7.94586 13.1975 -13.9584 34.288 5.98063 86.1308 -21.9789 75.6768 9.96684e-06 -4.41343e-06 15.8418 -36.5157 -21.0289 19.4876 40.2369 -56.435 33.0748 -8.63309 51.5321 14.7075 12.9494 1.87518 0.0537692 1.70048e-06 -5.97792 3.13971e-07 170.571 -48.7021 -160.797 19.7083 71.4573 -27.7814 -15.1514 -30.7477 -6.89678 3.52767e-06 -4.37974 1.22408e-07 
-40.7587 78.319 220.354 99.087 -73.3135 -64.3975 5.27615 5.78976 2.57563 5.77315 11.1842 -2.91966 5.76168 11.2088 -2.83308 -15.9808 -44.8456 -22.1249 -1.71036 -7.30516 18.6105 25.0276 18.033 -28.212 11.346 -46.5747 -11.7248 -0.000197261 -1.2574e-05 -18.8437 42.9065 1.40693 11.4593 -12.2716 34.5367 7.17937 85.9586 -21.1188 74.2029 -3.43534e-06 7.28441e-06 15.0418 -32.6501 -17.9991 18.4089 47.9105 -61.9445 44.6095 -9.89079 52.6243 16.1128 14.933 -0.663806 3.64794 1.1502e-05 -3.22373 -1.55332e-05 166.851 -50.5033 -166.13 17.2344 71.1317 -25.864 -9.83507 -27.7409 -3.25414 4.06562e-06 -6.71338 1.37148e-05 
-41.5067 79.7691 224.111 65.4118 -79.7226 -101.396 4.26386 5.8823 2.16805 4.85744 11.5052 -2.73417 4.84937 11.5212 -2.66832 -14.0972 -45.8875 -23.0145 -2.02897 -9.53619 18.136 24.8108 20.8859 -31.236 9.68524 -49.8592 -23.1426 -0.000201886 -5.72519e-06 -23.8906 47.4765 -4.80171 9.34869 -11.8203 34.7979 6.60205 86.9896 -22.3128 70.1902 -2.15278e-06 2.66578e-06 18.4776 -29.4629 -12.7247 24.2586 60.2569 -67.6509 60.5814 -11.5084 60.4029 18.5403 12.6593 -7.0201 7.09346 4.28707e-06 -3.40941 -1.26326e-06 163.277 -54.8404 -172.89 13.4942 68.9382 -22.314 -6.41192 -23.3044 -0.207001 2.47061e-06 -11.4047 7.86216e-06 
-41.9763 81.7941 228.173 7.66441 -77.3713 -162.627 3.46749 6.11842 1.44455 4.06683 12.0067 -3.22179 4.06231 12.0171 -3.18217 -12.4176 -46.3811 -23.2886 -0.692691 -9.27813 18.9366 24.0058 21.9 -31.0145 4.1666 -50.1976 -36.125 -0.000192739 -2.83613e-06 -28.9782 50.2438 -10.3759 6.43392 -13.0099 34.553 7.1429 88.6711 -26.0829 65.8529 -6.02652e-06 1.2393e-05 24.1758 -31.7308 -12.1849 27.2209 84.2788 -73.733 88.3156 -12.273 71.8457 15.683 14.1349 -11.495 4.19342 -3.36006e-06 -8.53792 -3.92534e-06 156.428 -60.6767 177.865 10.8482 65.1348 -19.1031 -6.34723 -18.1442 1.03281 1.22444e-06 -15.7849 3.3982e-06 
-42.8013 84.5569 232.001 -16.2817 -68.7887 167.38 2.7362 5.96358 0.392857 3.50281 11.7922 -3.87634 3.50306 11.7985 -3.85492 -12.4078 -45.4571 -22.6144 1.11424 -5.98907 20.3087 20.7239 22.1448 -26.7777 -2.17655 -47.4956 -47.6185 -0.000200877 -6.92852e-06 -34.3882 51.0668 -15.488 2.76163 -14.778 33.4783 11.372 88.7402 -29.8962 64.1984 -5.08597e-06 6.91267e-06 26.9038 -34.3703 -14.0622 24.4829 120.903 -75.7367 127.452 1.66089 73.6768 -7.82151 16.3688 -8.69866 -4.19435 -2.50728 -17.5119 -0.693494 144.838 -66.5656 161.771 8.90837 58.6091 -14.2158 -7.85923 -11.3631 3.14244 -3.56383e-07 -18.636 -3.38288e-06 
-43.6291 88.529 235.427 -24.6787 -60.5805 149.876 2.06981 5.37698 -0.889869 3.41747 10.7465 -3.99518 3.42147 10.7494 -3.98338 -12.8074 -43.3031 -21.0774 2.65301 -1.97553 21.3088 15.0189 22.2063 -20.9913 -6.53593 -42.6842 -54.7041 -0.00019407 1.36516e-05 -40.2469 50.2151 -20.1773 -1.24968 -15.5894 32.0535 17.704 86.8308 -30.7703 65.5504 1.97558e-05 -8.96878e-06 25.3811 -33.1963 -13.9499 22.9513 118.421 -74.4233 124.201 8.1573 64.7706 -16.3389 10.6599 -3.15738 -15.0148 -4.34616 -23.629 -1.5827 126.289 -70.3304 136.086 8.76089 46.8342 -12.4514 -6.10628 1.24905 4.23403 -2.18993 -7.92096 -0.254282 
-44.5759 90.8985 238.187 -29.2914 -52.9915 134.902 1.92866 4.64487 -0.958293 3.1402 9.38892 -3.46724 3.14598 9.39291 -3.45122 -12.5931 -40.9876 -19.6533 3.52435 1.80604 20.9329 8.43265 21.6578 -15.2968 -9.16723 -37.1204 -57.0289 -0.000212093 -5.34829e-06 -46.3248 47.9455 -24.1142 -5.19527 -15.5789 30.9961 22.704 85.2705 -29.4788 66.9953 7.96518e-06 5.0319e-06 23.5695 -30.6339 -12.9795 23.6858 82.8637 -69.6237 87.6524 7.72254 56.4822 -15.1426 2.52413 -12.2957 -16.2178 -3.98479 -15.2754 -0.849913 108.088 -72.7461 112.333 8.03902 43.7659 -12.9136 -0.246435 -0.813765 -0.986941 2.80591e-06 -6.82679 -4.09747e-06 
-45.304 93.3103 240.732 -33.7354 -44.0156 121.529 2.20408 3.87176 0.419299 1.84121 7.90695 -2.53735 1.8445 7.91496 -2.50794 -12.1788 -39.1705 -19.0094 2.75538 5.68074 18.6533 2.54789 19.9577 -10.9119 -11.1529 -31.4103 -54.8375 -0.000200607 -4.25777e-06 -52.4649 44.611 -27.143 -8.82768 -15.4211 30.733 24.1666 84.6369 -27.753 65.5289 2.11564e-05 4.88687e-06 24.5166 -28.9473 -12.7038 24.4636 53.8465 -60.723 59.3547 6.51173 44.7496 -12.3565 -5.55713 -26.8273 -15.7339 1.90417e-06 1.60973 2.89734e-05 81.9215 -75.047 81.2716 5.94802 40.4342 -8.39232 3.54876 -0.853622 -10.2463 -1.79736e-06 -14.4503 -1.9701e-05 
-45.91 94.3363 242.35 -36.4407 -33.7463 111.36 2.44977 3.18523 1.75338 0.165052 6.49288 -1.48161 0.162856 6.5011 -1.44307 -11.8736 -37.4935 -18.5768 0.821338 9.40399 15.6953 -1.32381 17.2096 -8.65726 -13.4837 -25.6946 -48.8771 -0.000195606 1.23023e-07 -58.6873 40.716 -29.4336 -12.0017 -15.4747 30.9266 23.371 82.4719 -25.2464 60.7482 1.14026e-05 9.31791e-06 28.0105 -26.8361 -11.7022 25.6154 42.0847 -55.4343 49.4633 5.67464 43.1285 -7.64049 -5.79596 -26.9494 -8.27567 2.06602e-07 1.60975 9.66041e-06 53.0211 -78.5682 48.1241 5.77626 46.5414 -8.94517 -0.659642 0.0600303 -16.7121 -2.4729e-06 -10.6425 1.03245e-05 
-45.6645 94.0291 243.265 -36.4407 -24.2622 104.056 2.09591 2.82686 1.43655 -0.47557 5.75833 -0.862836 -0.480804 5.76384 -0.82544 -11.4263 -35.4552 -17.8352 -0.29669 12.3302 12.5917 -2.96708 14.2409 -7.92286 -16.9244 -20.6238 -40.9182 -0.000213085 1.54092e-06 -64.8212 36.7093 -31.1316 -14.5227 -16.655 30.9283 22.543 79.2149 -21.2539 54.9383 1.16003e-05 -7.00553e-06 32.9433 -24.3206 -8.4546 27.8526 33.4292 -50.5059 42.8177 5.18016 44.4121 1.59337 -9.42782 -28.4031 -8.24517 -3.26799e-06 1.60975 -1.20739e-05 2.17154 -77.6192 -5.80874 4.16153 52.8784 -8.63368 -4.56062 -10.2608 -17.7323 4.07456e-06 -8.03357 2.24162e-05 
-44.8011 93.2622 244.518 -34.9032 -17.2526 96.7323 1.78451 2.75545 0.626572 -0.271911 5.60071 -0.889 -0.27644 5.60496 -0.858543 -10.1847 -33.0063 -17.1606 0.328953 14.4824 8.43191 -3.05211 12.0415 -7.90358 -21.6212 -17.3826 -32.7393 -0.000208775 -3.43123e-07 -70.5535 32.8319 -32.278 -16.1593 -16.4401 31.251 21.354 75.608 -16.5275 49.3285 1.07318e-05 1.90797e-06 38.5563 -23.0174 -4.46196 30.0604 30.0532 -45.4465 40.6221 4.3076 46.8997 2.99317 -9.83599 -29.961 -0.807036 -0.350533 -0.0434043 0.000978537 -17.7955 -67.0461 -29.0467 1.07381 48.332 -3.86452 -6.90589 -3.41725 -24.0608 -9.46997e-07 -5.61429 1.32871e-06 
